<svg id="xgen_logo" data-name="Layer 1" xmlns="http://www.w3.org/2000/svg" xmlns:xlink="http://www.w3.org/1999/xlink" viewBox="0 0 252.92 66.6"><defs><linearGradient id="linear-gradient" x1="5.15" y1="812.72" x2="56.24" y2="826.78" gradientTransform="translate(0 -720)" gradientUnits="userSpaceOnUse"><stop offset="0" stop-color="#0f3f91"/><stop offset="1" stop-color="#42a5ee"/></linearGradient><linearGradient id="linear-gradient-2" x1="34.24" y1="762.24" x2="1.96" y2="806.94" xlink:href="#linear-gradient"/><linearGradient id="linear-gradient-3" x1="63.58" y1="814.53" x2="49.71" y2="762.8" xlink:href="#linear-gradient"/></defs><title>xgen</title><path d="M51.7,97l-25.8,4.5L9,81.3,5.8,90l16.8,20.2L57.4,104l3.2-8.7Z" transform="translate(0 -43.6)" style="fill:url(#linear-gradient)"/><path d="M18,56.8l25.8-4.7-6-7L12.1,49.8,0,83l5.8,7Z" transform="translate(0 -43.6)" style="fill:url(#linear-gradient-2)"/><path d="M60.5,72.3,51.7,97l9-1.7,9-24.7-22.8-27-9,1.5Z" transform="translate(0 -43.6)" style="fill:url(#linear-gradient-3)"/><path d="M75.17,105.19a4.32,4.32,0,0,1-1.78.32,3.15,3.15,0,0,1-3.33-3.41,3.35,3.35,0,0,1,3.52-3.53,3.61,3.61,0,0,1,1.6.3l-.21.71a3.17,3.17,0,0,0-1.36-.28A2.5,2.5,0,0,0,71,102.07a2.45,2.45,0,0,0,2.59,2.71A3.48,3.48,0,0,0,75,104.5Z" transform="translate(0 -43.6)" style="fill:#777"/><path d="M80.5,103a2.37,2.37,0,0,1-2.41,2.57A2.3,2.3,0,0,1,75.77,103a2.36,2.36,0,0,1,2.4-2.56A2.28,2.28,0,0,1,80.5,103Zm-3.84,0c0,1.06.61,1.86,1.47,1.86s1.47-.79,1.47-1.88c0-.82-.41-1.85-1.45-1.85S76.66,102.08,76.66,103Z" transform="translate(0 -43.6)" style="fill:#777"/><path d="M85.79,98.32v5.84c0,.43,0,.92,0,1.25H85l0-.84h0a1.79,1.79,0,0,1-1.65,1,2.21,2.21,0,0,1-2.07-2.46,2.31,2.31,0,0,1,2.17-2.59,1.6,1.6,0,0,1,1.46.74h0V98.32Zm-.88,4.22a1.55,1.55,0,0,0,0-.37,1.29,1.29,0,0,0-1.27-1c-.91,0-1.45.8-1.45,1.87s.48,1.79,1.43,1.79a1.32,1.32,0,0,0,1.29-1,1.53,1.53,0,0,0,0-.38Z" transform="translate(0 -43.6)" style="fill:#777"/><path d="M87.74,103.15a1.55,1.55,0,0,0,1.66,1.68,3.18,3.18,0,0,0,1.34-.25l.15.63a3.92,3.92,0,0,1-1.61.3,2.25,2.25,0,0,1-2.38-2.44,2.34,2.34,0,0,1,2.27-2.6,2,2,0,0,1,2,2.27,3.32,3.32,0,0,1,0,.41Zm2.58-.63a1.25,1.25,0,0,0-1.22-1.43,1.46,1.46,0,0,0-1.35,1.43Z" transform="translate(0 -43.6)" style="fill:#777"/><path d="M99.54,105.11a6.28,6.28,0,0,1-2.07.37,3.17,3.17,0,0,1-3.46-3.4,3.38,3.38,0,0,1,3.65-3.47,4.17,4.17,0,0,1,1.68.31l-.21.71a3.49,3.49,0,0,0-1.49-.29,2.52,2.52,0,0,0-2.71,2.7,2.47,2.47,0,0,0,2.6,2.72,2.84,2.84,0,0,0,1.16-.18v-2H97.32v-.7h2.22Z" transform="translate(0 -43.6)" style="fill:#777"/><path d="M101.38,103.15a1.55,1.55,0,0,0,1.66,1.68,3.18,3.18,0,0,0,1.34-.25l.15.63a3.92,3.92,0,0,1-1.61.3,2.25,2.25,0,0,1-2.38-2.44,2.34,2.34,0,0,1,2.27-2.6,2,2,0,0,1,2,2.27,3.32,3.32,0,0,1,0,.41Zm2.58-.63a1.25,1.25,0,0,0-1.22-1.43,1.46,1.46,0,0,0-1.35,1.43Z" transform="translate(0 -43.6)" style="fill:#777"/><path d="M105.9,101.89c0-.5,0-.92,0-1.31h.78l0,.8h0a1.78,1.78,0,0,1,1.6-.91c.67,0,1.71.4,1.71,2v2.89h-.88v-2.79c0-.78-.29-1.43-1.12-1.43a1.25,1.25,0,0,0-1.18.9,1.27,1.27,0,0,0-.06.41v2.91h-.88Z" transform="translate(0 -43.6)" style="fill:#777"/><path d="M111.94,103.15a1.55,1.55,0,0,0,1.66,1.68,3.18,3.18,0,0,0,1.34-.25l.15.63a3.92,3.92,0,0,1-1.61.3,2.25,2.25,0,0,1-2.38-2.44,2.34,2.34,0,0,1,2.27-2.6,2,2,0,0,1,2,2.27,3.32,3.32,0,0,1,0,.41Zm2.58-.63a1.25,1.25,0,0,0-1.22-1.43,1.46,1.46,0,0,0-1.35,1.43Z" transform="translate(0 -43.6)" style="fill:#777"/><path d="M116.46,102.08c0-.57,0-1.06,0-1.5h.77l0,.94h0a1.45,1.45,0,0,1,1.34-1,.66.66,0,0,1,.25,0v.82a1.37,1.37,0,0,0-.3,0,1.22,1.22,0,0,0-1.18,1.12,2.48,2.48,0,0,0,0,.41v2.58h-.87Z" transform="translate(0 -43.6)" style="fill:#777"/><path d="M122.36,105.41l-.07-.61h0a1.8,1.8,0,0,1-1.48.72,1.38,1.38,0,0,1-1.48-1.39c0-1.17,1-1.81,2.91-1.8v-.1a1,1,0,0,0-1.1-1.12,2.51,2.51,0,0,0-1.26.36l-.2-.58a3.1,3.1,0,0,1,1.59-.42c1.48,0,1.84,1,1.84,2v1.81a6.81,6.81,0,0,0,.08,1.16Zm-.13-2.47c-1,0-2,.15-2,1.09a.78.78,0,0,0,.83.84,1.2,1.2,0,0,0,1.17-.81.92.92,0,0,0,0-.28Z" transform="translate(0 -43.6)" style="fill:#777"/><path d="M125.52,99.19v1.39h1.26v.67h-1.26v2.6c0,.6.17.94.66.94a2,2,0,0,0,.51-.06l0,.66a2.15,2.15,0,0,1-.78.12,1.22,1.22,0,0,1-1-.37,1.79,1.79,0,0,1-.34-1.26v-2.63h-.75v-.67h.75V99.42Z" transform="translate(0 -43.6)" style="fill:#777"/><path d="M128.75,99.22a.55.55,0,0,1-1.09,0,.54.54,0,0,1,.55-.55A.52.52,0,0,1,128.75,99.22Zm-1,6.19v-4.83h.88v4.83Z" transform="translate(0 -43.6)" style="fill:#777"/><path d="M134.49,103a2.37,2.37,0,0,1-2.41,2.57,2.3,2.3,0,0,1-2.32-2.49,2.36,2.36,0,0,1,2.4-2.56A2.28,2.28,0,0,1,134.49,103Zm-3.84,0c0,1.06.61,1.86,1.47,1.86s1.47-.79,1.47-1.88c0-.82-.41-1.85-1.45-1.85S130.65,102.08,130.65,103Z" transform="translate(0 -43.6)" style="fill:#777"/><path d="M135.6,101.89c0-.5,0-.92,0-1.31h.78l0,.8h0a1.78,1.78,0,0,1,1.6-.91c.67,0,1.71.4,1.71,2v2.89h-.88v-2.79c0-.78-.29-1.43-1.12-1.43a1.25,1.25,0,0,0-1.18.9,1.27,1.27,0,0,0-.06.41v2.91h-.88Z" transform="translate(0 -43.6)" style="fill:#777"/><path d="M143.36,105.41v-4.16h-.68v-.67h.68v-.24a2.27,2.27,0,0,1,.56-1.68,1.68,1.68,0,0,1,1.18-.45,2,2,0,0,1,.75.14l-.12.68a1.31,1.31,0,0,0-.56-.11c-.75,0-.94.66-.94,1.4v.26h1.17v.67h-1.17v4.16Z" transform="translate(0 -43.6)" style="fill:#777"/><path d="M150.44,103a2.37,2.37,0,0,1-2.41,2.57,2.3,2.3,0,0,1-2.32-2.49,2.36,2.36,0,0,1,2.4-2.56A2.28,2.28,0,0,1,150.44,103Zm-3.84,0c0,1.06.61,1.86,1.47,1.86s1.47-.79,1.47-1.88c0-.82-.41-1.85-1.45-1.85S146.6,102.08,146.6,103Z" transform="translate(0 -43.6)" style="fill:#777"/><path d="M151.55,102.08c0-.57,0-1.06,0-1.5h.77l0,.94h0a1.45,1.45,0,0,1,1.34-1,.66.66,0,0,1,.25,0v.82a1.37,1.37,0,0,0-.3,0,1.22,1.22,0,0,0-1.18,1.12,2.48,2.48,0,0,0,0,.41v2.58h-.87Z" transform="translate(0 -43.6)" style="fill:#777"/><path d="M160.66,105.41l-.86-1.49c-.35-.57-.57-.94-.78-1.33h0c-.19.39-.38.75-.73,1.34l-.81,1.48h-1l2.06-3.41-2-3.32h1l.89,1.58c.25.44.44.78.62,1.13h0c.19-.39.36-.71.61-1.13l.92-1.58h1L159.57,102l2.1,3.46Z" transform="translate(0 -43.6)" style="fill:#777"/><path d="M168.36,102.45c-.05-.94-.11-2.06-.1-2.9h0c-.23.79-.51,1.63-.85,2.55l-1.19,3.27h-.66l-1.09-3.21c-.32-.94-.59-1.82-.78-2.61h0c0,.84-.07,2-.13,3l-.18,2.89h-.83l.47-6.73h1.11l1.15,3.25c.28.83.51,1.57.68,2.27h0c.17-.68.41-1.42.71-2.27l1.2-3.25H169l.42,6.73h-.85Z" transform="translate(0 -43.6)" style="fill:#777"/><path d="M170.72,98.68h.87v6h2.88v.73h-3.75Z" transform="translate(0 -43.6)" style="fill:#777"/><path d="M177.44,104.35a3.08,3.08,0,0,0,1.56.44c.89,0,1.41-.47,1.41-1.15s-.36-1-1.27-1.34c-1.1-.39-1.78-1-1.78-1.9a1.94,1.94,0,0,1,2.18-1.83,3.06,3.06,0,0,1,1.49.33l-.24.71a2.68,2.68,0,0,0-1.28-.32c-.92,0-1.27.55-1.27,1,0,.63.41.93,1.34,1.29,1.14.44,1.72,1,1.72,2s-.77,1.94-2.36,1.94a3.48,3.48,0,0,1-1.72-.43Z" transform="translate(0 -43.6)" style="fill:#777"/><path d="M186,105.23a3.24,3.24,0,0,1-1.39.28,2.3,2.3,0,0,1-2.41-2.47,2.46,2.46,0,0,1,2.6-2.57,3.11,3.11,0,0,1,1.22.25l-.2.68a2.06,2.06,0,0,0-1-.22,1.82,1.82,0,0,0,0,3.63,2.5,2.5,0,0,0,1.08-.24Z" transform="translate(0 -43.6)" style="fill:#777"/><path d="M187,98.32h.88v3h0a1.63,1.63,0,0,1,.63-.62,1.81,1.81,0,0,1,.9-.25c.65,0,1.69.4,1.69,2.06v2.88h-.88v-2.78c0-.78-.29-1.44-1.12-1.44a1.26,1.26,0,0,0-1.18.88,1.07,1.07,0,0,0-.06.42v2.92H187Z" transform="translate(0 -43.6)" style="fill:#777"/><path d="M193,103.15a1.55,1.55,0,0,0,1.66,1.68,3.18,3.18,0,0,0,1.34-.25l.15.63a3.92,3.92,0,0,1-1.61.3,2.25,2.25,0,0,1-2.38-2.44,2.34,2.34,0,0,1,2.27-2.6,2,2,0,0,1,2,2.27,3.32,3.32,0,0,1,0,.41Zm2.58-.63a1.25,1.25,0,0,0-1.22-1.43,1.46,1.46,0,0,0-1.35,1.43Z" transform="translate(0 -43.6)" style="fill:#777"/><path d="M197.56,101.89c0-.5,0-.92,0-1.31h.77l0,.77h0a1.66,1.66,0,0,1,1.52-.88,1.44,1.44,0,0,1,1.37,1h0a2.24,2.24,0,0,1,.54-.63,1.71,1.71,0,0,1,1.07-.33c.64,0,1.58.42,1.58,2.09v2.85h-.86v-2.74c0-.93-.33-1.49-1-1.49a1.14,1.14,0,0,0-1,.8,1.45,1.45,0,0,0-.07.44v3h-.86v-2.9c0-.77-.34-1.33-1-1.33a1.31,1.31,0,0,0-1.16,1.31v2.92h-.86Z" transform="translate(0 -43.6)" style="fill:#777"/><path d="M208.58,105.41l-.07-.61h0a1.8,1.8,0,0,1-1.48.72,1.38,1.38,0,0,1-1.48-1.39c0-1.17,1-1.81,2.91-1.8v-.1a1,1,0,0,0-1.1-1.12,2.51,2.51,0,0,0-1.26.36l-.2-.58a3.1,3.1,0,0,1,1.59-.42c1.48,0,1.84,1,1.84,2v1.81a6.81,6.81,0,0,0,.08,1.16Zm-.13-2.47c-1,0-2,.15-2,1.09a.78.78,0,0,0,.83.84,1.2,1.2,0,0,0,1.17-.81.92.92,0,0,0,0-.28Z" transform="translate(0 -43.6)" style="fill:#777"/><path d="M212.87,98.77a12.46,12.46,0,0,1,1.85-.14,3.86,3.86,0,0,1,2.73.84,3.14,3.14,0,0,1,1,2.42,3.56,3.56,0,0,1-1,2.61,4.15,4.15,0,0,1-3,1,14,14,0,0,1-1.58-.08Zm.87,6a5.49,5.49,0,0,0,.88,0,2.59,2.59,0,0,0,2.87-2.86,2.4,2.4,0,0,0-2.73-2.59,4.94,4.94,0,0,0-1,.09Z" transform="translate(0 -43.6)" style="fill:#777"/><path d="M220,103.15a1.55,1.55,0,0,0,1.66,1.68,3.18,3.18,0,0,0,1.34-.25l.15.63a3.92,3.92,0,0,1-1.61.3,2.25,2.25,0,0,1-2.38-2.44,2.34,2.34,0,0,1,2.27-2.6,2,2,0,0,1,2,2.27,3.32,3.32,0,0,1,0,.41Zm2.58-.63a1.25,1.25,0,0,0-1.22-1.43,1.46,1.46,0,0,0-1.35,1.43Z" transform="translate(0 -43.6)" style="fill:#777"/><path d="M224.64,105.41v-4.16H224v-.67h.68v-.26a1.94,1.94,0,0,1,2.11-2.11,2.42,2.42,0,0,1,1.23.32l-.25.67a1.85,1.85,0,0,0-1-.28c-.93,0-1.2.65-1.2,1.42v.24h2.81v4.83h-.87v-4.16h-1.94v4.16Z" transform="translate(0 -43.6)" style="fill:#777"/><path d="M229.78,101.89c0-.5,0-.92,0-1.31h.78l0,.8h0a1.78,1.78,0,0,1,1.6-.91c.67,0,1.71.4,1.71,2v2.89H233v-2.79c0-.78-.29-1.43-1.12-1.43a1.25,1.25,0,0,0-1.18.9,1.27,1.27,0,0,0-.06.41v2.91h-.88Z" transform="translate(0 -43.6)" style="fill:#777"/><path d="M236.31,99.22a.55.55,0,0,1-1.09,0,.54.54,0,0,1,.55-.55A.52.52,0,0,1,236.31,99.22Zm-1,6.19v-4.83h.88v4.83Z" transform="translate(0 -43.6)" style="fill:#777"/><path d="M238.73,99.19v1.39H240v.67h-1.26v2.6c0,.6.17.94.66.94a2,2,0,0,0,.51-.06l0,.66a2.15,2.15,0,0,1-.78.12,1.22,1.22,0,0,1-.95-.37,1.79,1.79,0,0,1-.34-1.26v-2.63h-.75v-.67h.75V99.42Z" transform="translate(0 -43.6)" style="fill:#777"/><path d="M242,99.22a.55.55,0,0,1-1.09,0,.54.54,0,0,1,.55-.55A.52.52,0,0,1,242,99.22Zm-1,6.19v-4.83h.88v4.83Z" transform="translate(0 -43.6)" style="fill:#777"/><path d="M247.7,103a2.37,2.37,0,0,1-2.41,2.57A2.3,2.3,0,0,1,243,103a2.36,2.36,0,0,1,2.4-2.56A2.28,2.28,0,0,1,247.7,103Zm-3.84,0c0,1.06.61,1.86,1.47,1.86s1.47-.79,1.47-1.88c0-.82-.41-1.85-1.45-1.85S243.86,102.08,243.86,103Z" transform="translate(0 -43.6)" style="fill:#777"/><path d="M248.81,101.89c0-.5,0-.92,0-1.31h.78l0,.8h0a1.78,1.78,0,0,1,1.6-.91c.67,0,1.7.4,1.7,2v2.89h-.87v-2.79c0-.78-.29-1.43-1.12-1.43a1.25,1.25,0,0,0-1.18.9,1.27,1.27,0,0,0-.06.41v2.91h-.88Z" transform="translate(0 -43.6)" style="fill:#777"/><path d="M122.87,75.27,120,78.18q-.35-.34-4.78-4.56t-6.69-6.29h0q-1.76,1.61-6.34,6c-3.06,2.93-4.72,4.55-5,4.84l-2.75-2.39q.54-.47,4.88-4.27t6.94-6.22v0c-2.38-2.24-4.34-4.07-5.91-5.49L95.11,55l3-2.39q2.92,2.86,5.57,5.4c1.75,1.69,3.54,3.35,5.34,5h0l6-5.72q3-2.86,4.79-4.65l2.6,2.46q-3.31,2.85-6.24,5.42t-5,4.46v0q1.93,1.81,6.6,5.92Z" transform="translate(0 -43.6)" style="fill:#222"/><path d="M155.07,52.69c0,.36,0,1.92,0,4.68S155,63,155,66c0,1.32,0,2.74,0,4.28s0,3.55,0,6a10.25,10.25,0,0,1-1.92,6.23,11.82,11.82,0,0,1-5.42,4A33.79,33.79,0,0,1,141,88.14a59.71,59.71,0,0,1-9.22.61l-.56-3.22a52.7,52.7,0,0,0,6.55-.23,35.7,35.7,0,0,0,6-1,11.46,11.46,0,0,0,5.36-2.76,5.92,5.92,0,0,0,1.7-4.25h-1.57a46.68,46.68,0,0,1-8.46-.71A24.83,24.83,0,0,1,134,74.35a12.8,12.8,0,0,1-4.8-4.07,9.27,9.27,0,0,1-1.77-5.43,8.59,8.59,0,0,1,2.21-6,17.48,17.48,0,0,1,6.8-4.2,29.87,29.87,0,0,1,6.42-1.46,62,62,0,0,1,8.33-.54h3.9ZM151,65.79c0-1.73,0-3.64,0-5.73s0-3.48,0-4.15h-1c-1.53,0-3.31.11-5.36.31A26.21,26.21,0,0,0,139,57.33a13.91,13.91,0,0,0-5.4,3,6.25,6.25,0,0,0-2,4.69,6.34,6.34,0,0,0,1.81,4.54,11.85,11.85,0,0,0,5.1,2.94,27.75,27.75,0,0,0,5.09,1.14,46.57,46.57,0,0,0,5.82.33h1.4q0-.39,0-3C150.94,69.29,151,67.55,151,65.79Z" transform="translate(0 -43.6)" style="fill:#222"/><path d="M190.5,64.8H166.31a8,8,0,0,0,1.58,4.53,10.59,10.59,0,0,0,4.4,3.33,19.36,19.36,0,0,0,4.46,1.3,32.38,32.38,0,0,0,5.69.46c1.73,0,3,0,3.73,0a14.46,14.46,0,0,0,1.72-.13l-.61,3.44q-.39,0-1.47.09c-.71,0-1.91,0-3.59,0a37.26,37.26,0,0,1-8.65-.9,18,18,0,0,1-6.39-2.81,12.09,12.09,0,0,1-3.73-4.21,10.66,10.66,0,0,1-1.27-5,11.56,11.56,0,0,1,1.06-5,12.37,12.37,0,0,1,3.33-4.17,14,14,0,0,1,4.59-2.47,18.81,18.81,0,0,1,6-.92,15.6,15.6,0,0,1,5.44.87,13.86,13.86,0,0,1,3.86,2.08,10.32,10.32,0,0,1,3,4.09A14,14,0,0,1,190.5,64.8Zm-4.32-3a7.29,7.29,0,0,0-2.93-4.53,10.26,10.26,0,0,0-6.32-1.8,12.22,12.22,0,0,0-6.47,1.59,8.51,8.51,0,0,0-3.69,4.74Z" transform="translate(0 -43.6)" style="fill:#222"/><path d="M223.8,77.64h-4.2c0-.49,0-1.72,0-3.71s0-3.68,0-5.08c0-1.58,0-3,0-4.28s0-2.23,0-2.85a5.73,5.73,0,0,0-1.61-4.3,6.81,6.81,0,0,0-4.93-1.58,19.14,19.14,0,0,0-5.19.81A51.44,51.44,0,0,0,201.44,59c0,.46,0,1.44,0,2.95s0,2.93,0,4.25q0,3.34.06,7.13t.06,4.32h-4.19c0-.36,0-1.65,0-3.89s0-4.76,0-7.56q0-4.87,0-7.55t0-5.7h4.1l0,2.78h0A45.81,45.81,0,0,1,208,53.3a23.64,23.64,0,0,1,6.52-1q4.54,0,6.91,2.12a7.33,7.33,0,0,1,2.37,5.74c0,1.29,0,2.68,0,4.18s0,2.86,0,4.1,0,3,0,5.22S223.8,77.25,223.8,77.64Z" transform="translate(0 -43.6)" style="fill:#222"/></svg>